<svg width="23" height="22" viewBox="0 0 23 22" fill="none" xmlns="http://www.w3.org/2000/svg">
<path d="M11.5061 5.85608C10.4408 5.85608 9.39949 6.17197 8.51377 6.76379C7.62805 7.35561 6.93771 8.19679 6.53006 9.18095C6.1224 10.1651 6.01574 11.2481 6.22356 12.2928C6.43138 13.3376 6.94435 14.2973 7.69759 15.0506C8.45084 15.8038 9.41053 16.3168 10.4553 16.5246C11.5001 16.7324 12.583 16.6258 13.5672 16.2181C14.5514 15.8104 15.3925 15.1201 15.9844 14.2344C16.5762 13.3487 16.8921 12.3073 16.8921 11.2421C16.8931 10.5345 16.7545 9.83364 16.4842 9.17971C16.2139 8.52577 15.8172 7.9316 15.3169 7.43126C14.8166 6.93091 14.2224 6.53422 13.5684 6.26392C12.9145 5.99362 12.2137 5.85503 11.5061 5.85608ZM11.5061 14.7441C10.8138 14.7441 10.1371 14.5388 9.56157 14.1542C8.986 13.7696 8.5374 13.223 8.27249 12.5835C8.00759 11.9439 7.93827 11.2402 8.07332 10.5613C8.20837 9.88233 8.54171 9.25869 9.0312 8.76921C9.52068 8.27973 10.1443 7.94638 10.8233 7.81134C11.5022 7.67629 12.2059 7.7456 12.8455 8.01051C13.485 8.27541 14.0316 8.72402 14.4162 9.29959C14.8008 9.87516 15.0061 10.5518 15.0061 11.2441C15.004 12.1717 14.6345 13.0607 13.9786 13.7166C13.3227 14.3725 12.4337 14.742 11.5061 14.7441ZM18.3691 5.63608C18.3691 5.88462 18.2953 6.12758 18.1572 6.33419C18.019 6.5408 17.8227 6.70179 17.593 6.79676C17.3633 6.89174 17.1107 6.91643 16.8669 6.86773C16.6232 6.81902 16.3994 6.6991 16.2239 6.52314C16.0483 6.34719 15.929 6.12311 15.8808 5.87927C15.8327 5.63544 15.858 5.3828 15.9535 5.15335C16.0491 4.9239 16.2105 4.72795 16.4175 4.5903C16.6244 4.45265 16.8675 4.37949 17.1161 4.38008C17.2811 4.37969 17.4446 4.41191 17.5972 4.47489C17.7498 4.53787 17.8884 4.63037 18.0051 4.74708C18.1218 4.86378 18.2143 5.0024 18.2773 5.15497C18.3403 5.30753 18.3725 5.47103 18.3721 5.63608H18.3691ZM21.9391 6.91108C21.9724 5.27804 21.3617 3.69749 20.2391 2.51108C19.0503 1.3922 17.4713 0.782147 15.8391 0.811084C14.1051 0.711084 8.90607 0.711084 7.17107 0.811084C5.54038 0.778753 3.96167 1.38526 2.77207 2.50108C1.65125 3.68865 1.04089 5.26842 1.07207 6.90108C0.97207 8.63508 0.97207 13.8341 1.07207 15.5691C1.03873 17.2021 1.6494 18.7827 2.77207 19.9691C3.96132 21.0872 5.53996 21.6972 7.17207 21.6691C8.90607 21.7691 14.1051 21.7691 15.8401 21.6691C17.4731 21.7024 19.0537 21.0917 20.2401 19.9691C21.359 18.7803 21.969 17.2013 21.9401 15.5691C22.0401 13.8351 22.0401 8.64108 21.9401 6.90608L21.9391 6.91108ZM19.6991 17.4351C19.5208 17.8879 19.2513 18.2991 18.9072 18.6432C18.5631 18.9873 18.1519 19.2568 17.6991 19.4351C16.3161 19.9831 13.0351 19.8571 11.5071 19.8571C9.97907 19.8571 6.69307 19.9791 5.31507 19.4351C4.86229 19.2568 4.45105 18.9873 4.10697 18.6432C3.76288 18.2991 3.49332 17.8879 3.31507 17.4351C2.76707 16.0521 2.89307 12.7711 2.89307 11.2431C2.89307 9.71508 2.77107 6.42908 3.31507 5.05108C3.49332 4.5983 3.76288 4.18706 4.10697 3.84298C4.45105 3.4989 4.86229 3.22934 5.31507 3.05108C6.70007 2.50108 9.98107 2.63108 11.5061 2.63108C13.0311 2.63108 16.3201 2.50908 17.6981 3.05308C18.1509 3.23134 18.5621 3.5009 18.9062 3.84498C19.2503 4.18906 19.5198 4.6003 19.6981 5.05308C20.2461 6.43608 20.1201 9.71708 20.1201 11.2451C20.1201 12.7731 20.2471 16.0571 19.6991 17.4351Z" fill="#D6199C"/>
</svg>
