<svg width="25" height="20" viewBox="0 0 25 20" fill="none" xmlns="http://www.w3.org/2000/svg">
<path d="M22.138 5.11198C22.153 5.32498 22.153 5.53797 22.153 5.75197C22.1663 7.59419 21.8133 9.42068 21.1144 11.1252C20.4156 12.8298 19.3848 14.3784 18.0822 15.6811C16.7795 16.9838 15.2308 18.0145 13.5263 18.7134C11.8217 19.4122 9.99522 19.7653 8.153 19.752C5.47607 19.7566 2.85474 18.9882 0.604004 17.539C0.998476 17.5825 1.39515 17.6028 1.792 17.6C4.00581 17.6061 6.15713 16.8663 7.899 15.5C6.87248 15.4814 5.87738 15.1428 5.05269 14.5312C4.22799 13.9197 3.61489 13.0659 3.299 12.089C3.60632 12.1376 3.91687 12.163 4.228 12.165C4.66464 12.1639 5.09939 12.1077 5.522 11.998C4.408 11.7723 3.40652 11.1678 2.68772 10.2873C1.96892 9.40682 1.57716 8.30461 1.579 7.16797V7.10698C2.26051 7.48716 3.0222 7.70097 3.802 7.73097C2.75784 7.03472 2.0188 5.96619 1.73576 4.74352C1.45272 3.52084 1.64702 2.23624 2.279 1.15197C3.51454 2.67291 5.05598 3.91716 6.80335 4.80402C8.55071 5.69089 10.465 6.20055 12.422 6.29997C12.3443 5.92931 12.3048 5.55168 12.304 5.17298C12.305 4.18642 12.6024 3.22292 13.1575 2.40738C13.7127 1.59183 14.5 0.961852 15.4175 0.599098C16.3349 0.236344 17.3402 0.157545 18.3029 0.372915C19.2657 0.588285 20.1416 1.08789 20.817 1.80697C21.9186 1.59478 22.975 1.19281 23.939 0.618975C23.5721 1.75585 22.803 2.71979 21.776 3.32997C22.7511 3.21976 23.7043 2.96461 24.604 2.57297C23.9305 3.55336 23.0965 4.41309 22.137 5.11597L22.138 5.11198Z" fill="#429CB2"/>
</svg>
