{
  "accessors": [
    {
      "bufferView": 2,
      "componentType": 5126,
      "count": 5509,
      "max": [
        0.1352447122335434,
        2.25421404838562,
        0.20643466711044312
      ],
      "min": [
        -0.13296322524547577,
        2.0322930812835693,
        -0.11945691704750061
      ],
      "type": "VEC3"
    },
    {
      "bufferView": 2,
      "byteOffset": 66108,
      "componentType": 5126,
      "count": 5509,
      "max": [
        0.9997765421867371,
        0.9998118281364441,
        0.9997640252113342
      ],
      "min": [
        -0.9999667406082153,
        -0.9949157238006592,
        -0.9852839708328247
      ],
      "type": "VEC3"
    },
    {
      "bufferView": 3,
      "componentType": 5126,
      "count": 5509,
      "max": [
        0.9968395829200745,
        0.9908632636070251,
        0.9976180195808411,
        1.0
      ],
      "min": [
        -0.9999066591262817,
        -0.9999922513961792,
        -0.9979471564292908,
        -1.0
      ],
      "type": "VEC4"
    },
    {
      "bufferView": 1,
      "componentType": 5126,
      "count": 5509,
      "max": [
        1.0009765625,
        0.9947700500488281
      ],
      "min": [
        0.0004394054412841797,
        0.00439453125
      ],
      "type": "VEC2"
    },
    {
      "bufferView": 0,
      "componentType": 5125,
      "count": 10665,
      "type": "SCALAR"
    },
    {
      "bufferView": 2,
      "byteOffset": 132216,
      "componentType": 5126,
      "count": 664,
      "max": [
        0.43666571378707886,
        1.2722197771072388,
        0.3112627863883972
      ],
      "min": [
        -0.4371616244316101,
        0.568885087966919,
        -0.2425028532743454
      ],
      "type": "VEC3"
    },
    {
      "bufferView": 2,
      "byteOffset": 140184,
      "componentType": 5126,
      "count": 664,
      "max": [
        0.9981446266174316,
        0.9977496266365051,
        0.9999949932098389
      ],
      "min": [
        -0.9987437129020691,
        -0.9814752340316772,
        -0.999488353729248
      ],
      "type": "VEC3"
    },
    {
      "bufferView": 3,
      "byteOffset": 88144,
      "componentType": 5126,
      "count": 664,
      "max": [
        0.9991269707679749,
        0.9597304463386536,
        0.9999207854270935,
        1.0
      ],
      "min": [
        -0.999915599822998,
        -0.9652715921401978,
        -0.9982951879501343,
        -1.0
      ],
      "type": "VEC4"
    },
    {
      "bufferView": 1,
      "byteOffset": 44072,
      "componentType": 5126,
      "count": 664,
      "max": [
        0.62353515625,
        0.9926261901855469
      ],
      "min": [
        0.005634307861328125,
        0.4111328125
      ],
      "type": "VEC2"
    },
    {
      "bufferView": 0,
      "byteOffset": 42660,
      "componentType": 5125,
      "count": 2637,
      "type": "SCALAR"
    },
    {
      "bufferView": 2,
      "byteOffset": 148152,
      "componentType": 5126,
      "count": 2784,
      "max": [
        0.7910774946212769,
        2.211087465286255,
        0.33120307326316833
      ],
      "min": [
        -0.7903388142585754,
        0.0018687235424295068,
        -0.30524978041648865
      ],
      "type": "VEC3"
    },
    {
      "bufferView": 2,
      "byteOffset": 181560,
      "componentType": 5126,
      "count": 2784,
      "max": [
        0.9979058504104614,
        0.9998519420623779,
        0.9999788999557495
      ],
      "min": [
        -0.9980372786521912,
        -0.9989668130874634,
        -0.9992423057556152
      ],
      "type": "VEC3"
    },
    {
      "bufferView": 3,
      "byteOffset": 98768,
      "componentType": 5126,
      "count": 2784,
      "max": [
        0.9999690651893616,
        0.9999788403511047,
        0.9988822937011719,
        1.0
      ],
      "min": [
        -0.9999690055847168,
        -0.9996431469917297,
        -0.999973714351654,
        -1.0
      ],
      "type": "VEC4"
    },
    {
      "bufferView": 1,
      "byteOffset": 49384,
      "componentType": 5126,
      "count": 2784,
      "max": [
        1.72265625,
        0.98089599609375
      ],
      "min": [
        0.0120697021484375,
        0.0078125
      ],
      "type": "VEC2"
    },
    {
      "bufferView": 0,
      "byteOffset": 53208,
      "componentType": 5125,
      "count": 13332,
      "type": "SCALAR"
    }
  ],
  "asset": {
    "extras": {
      "author": "lenmorrow (https://sketchfab.com/lenmorrow)",
      "license": "CC-BY-4.0 (http://creativecommons.org/licenses/by/4.0/)",
      "source": "https://sketchfab.com/3d-models/hulk-3d-model-3521a5969e9e4b22813a88e2916db772",
      "title": "Hulk 3d Model"
    },
    "generator": "Sketchfab-13.37.1",
    "version": "2.0"
  },
  "bufferViews": [
    {
      "buffer": 0,
      "byteLength": 106536,
      "name": "floatBufferViews",
      "target": 34963
    },
    {
      "buffer": 0,
      "byteLength": 71656,
      "byteOffset": 106536,
      "byteStride": 8,
      "name": "floatBufferViews",
      "target": 34962
    },
    {
      "buffer": 0,
      "byteLength": 214968,
      "byteOffset": 178192,
      "byteStride": 12,
      "name": "floatBufferViews",
      "target": 34962
    },
    {
      "buffer": 0,
      "byteLength": 143312,
      "byteOffset": 393160,
      "byteStride": 16,
      "name": "floatBufferViews",
      "target": 34962
    }
  ],
  "buffers": [
    {
      "byteLength": 536472,
      "uri": "scene.bin"
    }
  ],
  "images": [
    {
      "uri": "textures/lvjuren_battlebody_baseColor.jpeg"
    },
    {
      "uri": "textures/lvjuren_battlebody_metallicRoughness.png"
    },
    {
      "uri": "textures/lvjuren_battlebody_normal.jpeg"
    },
    {
      "uri": "textures/lvjuren_battleface_metallicRoughness.png"
    },
    {
      "uri": "textures/lvjuren_battlehair_baseColor.jpeg"
    },
    {
      "uri": "textures/lvjuren_battlehair_normal.jpeg"
    }
  ],
  "materials": [
    {
      "doubleSided": true,
      "name": "lvjuren_battlebody",
      "normalTexture": {
        "index": 2
      },
      "pbrMetallicRoughness": {
        "baseColorTexture": {
          "index": 0
        },
        "metallicRoughnessTexture": {
          "index": 1
        }
      }
    },
    {
      "doubleSided": true,
      "name": "lvjuren_battleface",
      "normalTexture": {
        "index": 2
      },
      "pbrMetallicRoughness": {
        "baseColorTexture": {
          "index": 0
        },
        "metallicRoughnessTexture": {
          "index": 3
        }
      }
    },
    {
      "doubleSided": true,
      "name": "lvjuren_battlehair",
      "normalTexture": {
        "index": 5
      },
      "pbrMetallicRoughness": {
        "baseColorTexture": {
          "index": 4
        },
        "metallicFactor": 0.0,
        "roughnessFactor": 0.788526
      }
    }
  ],
  "meshes": [
    {
      "name": "hair_lvjuren_battle_hair_0",
      "primitives": [
        {
          "attributes": {
            "NORMAL": 1,
            "POSITION": 0,
            "TANGENT": 2,
            "TEXCOORD_0": 3
          },
          "indices": 4,
          "material": 2,
          "mode": 4
        }
      ]
    },
    {
      "name": "body_lvjuren_battle_body_0",
      "primitives": [
        {
          "attributes": {
            "NORMAL": 6,
            "POSITION": 5,
            "TANGENT": 7,
            "TEXCOORD_0": 8
          },
          "indices": 9,
          "material": 0,
          "mode": 4
        }
      ]
    },
    {
      "name": "face_lvjuren_battle_face_0",
      "primitives": [
        {
          "attributes": {
            "NORMAL": 11,
            "POSITION": 10,
            "TANGENT": 12,
            "TEXCOORD_0": 13
          },
          "indices": 14,
          "material": 1,
          "mode": 4
        }
      ]
    }
  ],
  "nodes": [
    {
      "children": [
        1
      ],
      "matrix": [
        1.0,
        0.0,
        0.0,
        0.0,
        0.0,
        2.220446049250313e-16,
        -1.0,
        0.0,
        0.0,
        1.0,
        2.220446049250313e-16,
        0.0,
        0.0,
        0.0,
        0.0,
        1.0
      ],
      "name": "Sketchfab_model"
    },
    {
      "children": [
        12,
        13,
        2
      ],
      "matrix": [
        0.009999999776482582,
        0.0,
        0.0,
        0.0,
        0.0,
        2.2204459996194763e-18,
        0.009999999776482582,
        0.0,
        0.0,
        -0.009999999776482582,
        2.2204459996194763e-18,
        0.0,
        0.0,
        0.0,
        0.0,
        1.0
      ],
      "name": "USDRoot"
    },
    {
      "children": [
        3
      ],
      "name": "scene"
    },
    {
      "children": [
        4
      ],
      "matrix": [
        100.0,
        0.0,
        0.0,
        0.0,
        0.0,
        100.0,
        0.0,
        0.0,
        0.0,
        0.0,
        100.0,
        0.0,
        0.0,
        0.0,
        0.0,
        1.0
      ],
      "name": "Meshes"
    },
    {
      "children": [
        5
      ],
      "matrix": [
        1.0,
        0.0,
        0.0,
        0.0,
        0.0,
        2.220446049250313e-16,
        -1.0,
        0.0,
        0.0,
        1.0,
        2.220446049250313e-16,
        0.0,
        0.0,
        0.0,
        0.0,
        1.0
      ],
      "name": "Sketchfab_model"
    },
    {
      "children": [
        6
      ],
      "matrix": [
        0.009999999776482582,
        0.0,
        0.0,
        0.0,
        0.0,
        0.0,
        0.009999999776482582,
        0.0,
        0.0,
        -0.009999999776482582,
        0.0,
        0.0,
        0.0,
        0.0,
        0.0,
        1.0
      ],
      "name": "lvjuren_battle_fbx"
    },
    {
      "children": [
        7
      ],
      "name": "RootNode"
    },
    {
      "children": [
        8
      ],
      "name": "lvjuren_battle"
    },
    {
      "children": [
        9
      ],
      "name": "Object_4"
    },
    {
      "children": [
        10
      ],
      "matrix": [
        1.0,
        0.0,
        0.0,
        0.0,
        0.0,
        1.0,
        1.6292068494294654e-07,
        0.0,
        0.0,
        -1.6292068494294654e-07,
        1.0,
        0.0,
        -4.235164736271502e-22,
        0.0,
        -3.2959746043559335e-17,
        1.0
      ],
      "name": "Object_10"
    },
    {
      "children": [
        11
      ],
      "name": "hair_lvjuren_battle_hair_0"
    },
    {
      "mesh": 0,
      "name": "hair_lvjuren_battle_hair_0"
    },
    {
      "mesh": 1,
      "name": "body_lvjuren_battle_body_0"
    },
    {
      "mesh": 2,
      "name": "face_lvjuren_battle_face_0"
    }
  ],
  "samplers": [
    {
      "magFilter": 9729,
      "minFilter": 9987,
      "wrapS": 10497,
      "wrapT": 10497
    }
  ],
  "scene": 0,
  "scenes": [
    {
      "name": "Sketchfab_Scene",
      "nodes": [
        0
      ]
    }
  ],
  "textures": [
    {
      "sampler": 0,
      "source": 0
    },
    {
      "sampler": 0,
      "source": 1
    },
    {
      "sampler": 0,
      "source": 2
    },
    {
      "sampler": 0,
      "source": 3
    },
    {
      "sampler": 0,
      "source": 4
    },
    {
      "sampler": 0,
      "source": 5
    }
  ]
}
