<svg width="22" height="22" viewBox="0 0 22 22" fill="none" xmlns="http://www.w3.org/2000/svg">
<path d="M19.7141 0.602051H1.93213C1.53818 0.604959 1.16146 0.763974 0.884582 1.04423C0.607703 1.32448 0.453263 1.7031 0.455127 2.09705V19.8521C0.453545 20.0475 0.490502 20.2414 0.563885 20.4226C0.637268 20.6038 0.74564 20.7688 0.882806 20.9081C1.01997 21.0474 1.18324 21.1583 1.36329 21.2345C1.54334 21.3107 1.73663 21.3506 1.93213 21.3521H19.7141C20.1093 21.3491 20.4872 21.1896 20.7649 20.9083C21.0425 20.6271 21.1973 20.2472 21.1951 19.8521V2.09705C21.1959 1.70273 21.0406 1.32412 20.7631 1.04398C20.4856 0.763843 20.1084 0.604957 19.7141 0.602051ZM6.72413 18.3801H3.64913V8.48005H6.72813V18.3801H6.72413ZM5.18613 7.13005C4.83355 7.12985 4.48896 7.02507 4.19596 6.82896C3.90296 6.63286 3.67471 6.35424 3.54011 6.02837C3.4055 5.7025 3.37059 5.34403 3.43979 4.99831C3.50898 4.6526 3.67918 4.33518 3.92884 4.08622C4.17849 3.83726 4.49639 3.66796 4.8423 3.59973C5.18821 3.53151 5.54659 3.56743 5.87208 3.70294C6.19756 3.83846 6.47554 4.06749 6.67082 4.36104C6.8661 4.65459 6.96992 4.99948 6.96913 5.35205C6.9678 5.82406 6.77937 6.27629 6.44513 6.60959C6.1109 6.94289 5.65814 7.13005 5.18613 7.13005ZM18.2461 18.3801H15.1731V13.5651C15.1731 12.4171 15.1501 10.9401 13.5731 10.9401C11.9731 10.9401 11.7261 12.1901 11.7261 13.4821V18.3821H8.65513V8.48205H11.6041V9.83405H11.6461C11.9417 9.32917 12.3685 8.91379 12.8813 8.63207C13.394 8.35035 13.9735 8.2128 14.5581 8.23405C17.6691 8.23405 18.2481 10.2851 18.2481 12.9521L18.2461 18.3801Z" fill="#4B5E88"/>
</svg>
