<svg width="41" height="33" viewBox="0 0 41 33" fill="none" xmlns="http://www.w3.org/2000/svg">
<path d="M37.8339 4.8H3.13379C1.83379 4.8 0.733887 3.7 0.733887 2.4C0.733887 1.1 1.83379 0 3.13379 0H37.8339C39.1339 0 40.2339 1.1 40.2339 2.4C40.3339 3.7 39.2339 4.8 37.8339 4.8Z" fill="white"/>
<path d="M37.8339 18.5H3.13379C1.83379 18.5 0.733887 17.4 0.733887 16.1C0.733887 14.8 1.83379 13.7 3.13379 13.7H37.8339C39.1339 13.7 40.2339 14.8 40.2339 16.1C40.3339 17.4 39.2339 18.5 37.8339 18.5Z" fill="white"/>
<path d="M37.8339 32.2H3.13379C1.83379 32.2 0.733887 31.1 0.733887 29.8C0.733887 28.5 1.83379 27.4 3.13379 27.4H37.8339C39.1339 27.4 40.2339 28.5 40.2339 29.8C40.3339 31.1 39.2339 32.2 37.8339 32.2Z" fill="white"/>
</svg>
